# xmcd CD database file generated by OrangeCD 5.2
#
# Track frame offsets:
#	150
#	11507
#	25075
#	38072
#	50660
#	62352
#	79197
#	92642
#	109770
#	120902
#	136630
#	148462
#	159987
#	175762
#	189875
#	198967
#
# Disc length: 2838 seconds
#
# Revision: 2
# Processed by: cddbd v1.5.1PL0 Copyright (c) Steve Scherf et al.
# Submitted via: OrangeCD 5.2
#
DISCID=c20b1410
DTITLE=Darts - Daddy Cool
DYEAR=1900
DGENRE=Blues
TTITLE0=Daddy Cool - The Girl Can't Help It
TTITLE1=Get It
TTITLE2=Reet Petite
TTITLE3=Shotgun
TTITLE4=Don't Say Yes
TTITLE5=Duke Of Earl
TTITLE6=Bones
TTITLE7=It's Raining
TTITLE8=Come Back My Love
TTITLE9=Don't Let It Fade Away
TTITLE10=Sh-Boom (Life Could Be A Dream)
TTITLE11=Peaches 'N' Cream
TTITLE12=Can't Get Enough Of Your Love
TTITLE13=Zing, Went The Strings Of My Heart
TTITLE14=Honey Bee
TTITLE15=The Boy From New York City
EXTD=
EXTT0=
EXTT1=
EXTT2=
EXTT3=
EXTT4=
EXTT5=
EXTT6=
EXTT7=
EXTT8=
EXTT9=
EXTT10=
EXTT11=
EXTT12=
EXTT13=
EXTT14=
EXTT15=
PLAYORDER=
